<?xml version="1.0" encoding="UTF-8"?>
<svg version="1.1" xmlns="http://www.w3.org/2000/svg" width="452" height="234">
<path d="M0 0 C71.61 0 143.22 0 217 0 C217 89.18060095 217 89.18060095 196.08203125 110.2109375 C176.4811176 128.66407846 149.12339242 134.39157935 123.07421875 134.1953125 C121.59064426 134.19157093 120.10706725 134.18872939 118.62348938 134.18673706 C114.76515583 134.17919044 110.9069788 134.15962197 107.04870605 134.1373291 C102.39454634 134.11302728 97.74033357 134.10404686 93.08612823 134.09242249 C86.05731079 134.07318998 79.02883508 134.03480579 72 134 C72 123.11 72 112.22 72 101 C75.74730469 100.96261719 79.49460937 100.92523438 83.35546875 100.88671875 C87.02276127 100.84038301 90.68995657 100.78919319 94.35717773 100.73754883 C96.88739005 100.70448786 99.41767278 100.67639866 101.94799805 100.65356445 C105.60495756 100.61967033 109.26128255 100.56733844 112.91796875 100.51171875 C114.03205612 100.50532883 115.14614349 100.4989389 116.29399109 100.49235535 C129.37494859 100.25263933 142.3391539 97.8604592 152.35546875 88.890625 C158.66493022 82.22489157 161.08444652 76.76159605 161.4375 67.625 C161.19067634 58.7290638 158.46047507 51.39917213 152.3046875 44.88671875 C140.1724856 34.95476364 125.24242189 32.81597706 110 34 C99.83107885 35.42785279 91.19429033 38.6632578 83 45 C82.00484375 45.76828125 81.0096875 46.5365625 79.984375 47.328125 C76.87229936 49.95396986 74.66286472 52.93729322 72.375 56.3125 C71.64023437 57.38113281 70.90546875 58.44976562 70.1484375 59.55078125 C67.85815457 63.2277264 65.93728271 67.12543458 64 71 C42.88 71 21.76 71 0 71 C0 47.57 0 24.14 0 0 Z " fill="#2E3191" transform="translate(235,0)"/>
<path d="M0 0 C2 1 2 1 2.80273438 3.33129883 C3.06376953 4.36279053 3.32480469 5.39428223 3.59375 6.45703125 C4.04814453 8.19968262 4.04814453 8.19968262 4.51171875 9.97753906 C4.83785156 11.24307617 5.16398437 12.50861328 5.5 13.8125 C10.59683674 33.03132147 16.40199843 52.44848095 25.83984375 70.03027344 C28.13950733 74.46299232 28.13950733 74.46299232 27.4296875 77.1953125 C25.83830599 79.20410555 24.16617462 81.04100846 22.375 82.875 C10.74824963 95.76782119 2.8596551 114.32690314 2.68115234 131.70117188 C2.67110672 132.42410431 2.6610611 133.14703674 2.65071106 133.89187622 C2.62013781 136.25082699 2.60291696 138.60966569 2.5859375 140.96875 C2.56720496 142.61642402 2.54763002 144.26408867 2.5272522 145.91174316 C2.47614516 150.22540734 2.43640545 154.53910254 2.39910889 158.85290527 C2.35893412 163.26399272 2.30790356 167.67495349 2.2578125 172.0859375 C2.16130727 180.72387146 2.07682208 189.36186866 2 198 C3.90976556 198.16247031 5.81961218 198.32398803 7.72949219 198.48510742 C8.79302917 198.57515549 9.85656616 198.66520355 10.95233154 198.75798035 C32.44099794 200.46442567 53.17315514 196.16427451 70.05078125 181.890625 C81.90462882 170.39310552 86.51969634 156.68813803 90 141 C90.33 139.68 90.66 138.36 91 137 C109.15 137 127.3 137 146 137 C146 169.01 146 201.02 146 234 C115.35512101 234.08032734 115.35512101 234.08032734 100.07762051 234.10050774 C91.85746856 234.11153528 83.63735777 234.12547312 75.41723633 234.15087891 C68.90282746 234.17100303 62.38844984 234.18376081 55.87401074 234.18817699 C52.43430689 234.19075269 48.9946923 234.19667334 45.55501747 234.21146011 C4.16190728 234.36943806 -31.43097258 229.89012604 -62.375 199.875 C-65.67716796 196.49129703 -68.37946518 192.93080224 -71 189 C-69.45872649 185.28731906 -67.19156766 183.01884302 -64.3125 180.25 C-60.55175274 176.57595585 -57.01929371 172.83822119 -53.66796875 168.7890625 C-51.62746568 166.60041987 -49.36681441 164.82433573 -47 163 C-46.44054687 163.73863281 -45.88109375 164.47726563 -45.3046875 165.23828125 C-33.57247349 180.08273852 -19.05104169 190.12960053 -1 196 C-0.90642575 187.31446313 -0.83579952 178.62910547 -0.79275131 169.94317055 C-0.77206775 165.90789334 -0.74411293 161.87296635 -0.69824219 157.83789062 C-0.40586317 131.41783471 -0.47245717 104.62342689 -19.15625 83.5703125 C-22.72785983 79.82122486 -22.72785983 79.82122486 -27 77 C-24.80490337 70.08793198 -22.16123781 63.47810988 -19.3125 56.8125 C-11.48290063 38.19640859 -4.96864759 19.58265369 0 0 Z " fill="#2D3290" transform="translate(71,0)"/>
<path d="M0 0 C18.15 0 36.3 0 55 0 C56.32 7.26 57.64 14.52 59 22 C67.15130156 49.86607742 80.73681794 71.84810696 100.34765625 93.1015625 C102 95 102 95 102 96 C68.34 96 34.68 96 0 96 C0 64.32 0 32.64 0 0 Z " fill="#2E3191" transform="translate(235,137)"/>
<path d="M0 0 C33.66 0 67.32 0 102 0 C102 23.43 102 46.86 102 71 C81.54 71 61.08 71 40 71 C37.03 61.1 37.03 61.1 34 51 C26.74742326 33.1103107 17.9607427 14.32350132 1.46875 3.19140625 C0.9840625 2.79824219 0.499375 2.40507813 0 2 C0 1.34 0 0.68 0 0 Z " fill="#2E3191" transform="translate(115,0)"/>
<path d="M0 0 C3.92842698 3.40874718 5.89344797 7.21787861 8.125 11.8125 C8.47175781 12.49892578 8.81851563 13.18535156 9.17578125 13.89257812 C11.361948 18.31935639 12.59806997 22.0932449 14 27 C14 20.73 14 14.46 14 8 C22.43764516 19.25019355 25.03571789 34.93923026 23.6015625 48.73046875 C21.89558263 58.00258012 18.19923515 65.94930363 12 73 C11.49597656 73.7115625 10.99195313 74.423125 10.47265625 75.15625 C5.51930229 81.35636652 0.38644619 82.02245563 -7.07543945 83.00048828 C-21.98143948 84.95652771 -33.55193895 91.81164749 -43.7578125 102.75 C-44.16773437 103.1625 -44.57765625 103.575 -45 104 C-45.33 104 -45.66 104 -46 104 C-46.84740696 86.29861024 -44.19372155 70.15048003 -32.1105957 56.37524414 C-29.80723711 53.84585688 -27.41760562 51.42100591 -25 49 C-24.27941406 48.2678125 -23.55882813 47.535625 -22.81640625 46.78125 C-15.43348005 39.74723336 -6.17137492 34.38932301 3 30 C3.30614932 21.59790191 3.32979376 14.32729509 0.65625 6.26953125 C0 4 0 4 0 0 Z " fill="#9FC758" transform="translate(120,54)"/>
<path d="M0 0 C2 1 2 1 2.80273438 3.33129883 C3.19428711 4.87853638 3.19428711 4.87853638 3.59375 6.45703125 C3.89667969 7.61879883 4.19960937 8.78056641 4.51171875 9.97753906 C5.00091797 11.87584473 5.00091797 11.87584473 5.5 13.8125 C10.59683674 33.03132147 16.40199843 52.44848095 25.83984375 70.03027344 C28.13950733 74.46299232 28.13950733 74.46299232 27.4296875 77.1953125 C25.83830599 79.20410555 24.16617462 81.04100846 22.375 82.875 C9.40142435 97.26130621 4.76083362 115.46896507 1 134 C0.67 134 0.34 134 0 134 C-0.14248169 133.10244995 -0.14248169 133.10244995 -0.2878418 132.18676758 C-3.6427287 111.45416384 -8.33148302 92.29215 -25 78 C-25.66 77.67 -26.32 77.34 -27 77 C-24.80490337 70.08793198 -22.16123781 63.47810988 -19.3125 56.8125 C-11.48290063 38.19640859 -4.96864759 19.58265369 0 0 Z " fill="#E5312D" transform="translate(71,0)"/>
<path d="M0 0 C1.20150716 3.60452147 0.65826332 4.8977976 -0.375 8.5 C-2.36198907 15.98523278 -3.06913552 23.27064883 -3 31 C-2.15566406 31.25007813 -1.31132812 31.50015625 -0.44140625 31.7578125 C17.73250874 38.31775003 33.69423776 53.41907884 41.875 70.75 C45.91770303 80.31411288 48.09228431 90.57701583 47 101 C46.34 101.99 45.68 102.98 45 104 C44.62230469 103.50371094 44.24460937 103.00742188 43.85546875 102.49609375 C33.6912364 89.95147912 19.04488459 83.94864878 3.31811523 82.25097656 C-3.36668495 81.39982236 -6.80899727 78.57306371 -11.1953125 73.421875 C-20.26995984 60.85697868 -24.05869862 49.40757539 -22.61328125 33.734375 C-21.13797856 24.75100318 -18.24913014 16.05098343 -14 8 C-13.67 8 -13.34 8 -13 8 C-13 14.27 -13 20.54 -13 27 C-12.319375 24.9375 -11.63875 22.875 -10.9375 20.75 C-8.50476824 13.69199214 -5.34334567 5.34334567 0 0 Z " fill="#8DC257" transform="translate(23,54)"/>
<path d="M0 0 C5.09137774 5.22898254 5.21024261 8.96562925 5.16796875 16 C4.98412711 19.28349721 4.3366855 21.99245762 3 25 C2.34 25 1.68 25 1 25 C0.6596875 26.36125 0.6596875 26.36125 0.3125 27.75 C-1.57847985 32.4324263 -4.19024144 34.15825183 -8.6875 36.25 C-16.20101627 37.95117349 -24.71484547 37.61998218 -32 35 C-34.4375 32.5625 -34.4375 32.5625 -36 30 C-36.556875 29.46375 -37.11375 28.9275 -37.6875 28.375 C-39 27 -39 27 -40 24 C-30.95086259 14.43101852 -14.64547714 -1.82805812 0 0 Z " fill="#CCD25A" transform="translate(127,97)"/>
<path d="M0 0 C15.75576124 5.08352216 29.63381468 12.90587117 40 26 C36.64403322 32.95921532 32.2607149 37.18840402 25 40 C18.31139655 41.11017972 12.93346757 40.16451604 7 37 C7 36.34 7 35.68 7 35 C6.401875 34.7525 5.80375 34.505 5.1875 34.25 C2.66413131 32.80807503 1.49969924 31.47450374 0 29 C0 28.01 0 27.02 0 26 C-0.66 26 -1.32 26 -2 26 C-4.84181583 17.47455251 -3.1113607 8.20436184 0 0 Z " fill="#EDD95B" transform="translate(16,95)"/>
<path d="M0 0 C20.13 0 40.26 0 61 0 C59 10 59 10 58 14 C38.86 14 19.72 14 0 14 C0 9.38 0 4.76 0 0 Z " fill="#2E3191" transform="translate(235,77)"/>
<path d="M0 0 C3.92842698 3.40874718 5.89344797 7.21787861 8.125 11.8125 C8.47175781 12.49892578 8.81851563 13.18535156 9.17578125 13.89257812 C12.34791935 20.31585393 14.28800157 26.18393031 14.125 33.4375 C14.10695312 34.48808594 14.08890625 35.53867188 14.0703125 36.62109375 C14.04710937 37.40613281 14.02390625 38.19117188 14 39 C12.96875 39.37125 11.9375 39.7425 10.875 40.125 C-10.7112614 48.30103529 -28.85877699 58.6197869 -39.4609375 79.9375 C-42.56255128 86.82200688 -44.11116324 93.51785179 -45 101 C-45.33 101 -45.66 101 -46 101 C-47.01865855 84.47509455 -43.19385393 69.01059184 -32.1105957 56.37524414 C-29.80723711 53.84585688 -27.41760562 51.42100591 -25 49 C-24.27941406 48.2678125 -23.55882813 47.535625 -22.81640625 46.78125 C-15.43348005 39.74723336 -6.17137492 34.38932301 3 30 C3.30614932 21.59790191 3.32979376 14.32729509 0.65625 6.26953125 C0 4 0 4 0 0 Z " fill="#A92865" transform="translate(120,54)"/>
<path d="M0 0 C19.8 0 39.6 0 60 0 C60 4.62 60 9.24 60 14 C40.86 14 21.72 14 2 14 C1.34 9.38 0.68 4.76 0 0 Z " fill="#2E3191" transform="translate(157,77)"/>
<path d="M0 0 C1.20150716 3.60452147 0.65826332 4.8977976 -0.375 8.5 C-2.36198907 15.98523278 -3.06913552 23.27064883 -3 31 C-2.15566406 31.25007813 -1.31132812 31.50015625 -0.44140625 31.7578125 C17.73250874 38.31775003 33.69423776 53.41907884 41.875 70.75 C46.13268331 80.82270715 47.19935907 90.19030842 47 101 C46.67 101 46.34 101 46 101 C45.84144531 100.12859375 45.68289062 99.2571875 45.51953125 98.359375 C42.01437035 80.46562545 34.8046815 66.15477387 20 55 C10.51813736 48.81518792 0.02913731 43.40763677 -10.83984375 40.1484375 C-13 39 -13 39 -13.87109375 36.76953125 C-14.46015169 24.11371069 -7.87582095 9.69710455 0 0 Z " fill="#A92865" transform="translate(23,54)"/>
<path d="M0 0 C18.81 0 37.62 0 57 0 C57 4.62 57 9.24 57 14 C38.85 14 20.7 14 2 14 C-0.10818511 9.78362979 0.39148015 4.69776176 0 0 Z " fill="#2E3191" transform="translate(160,97)"/>
<path d="M0 0 C18.48 0 36.96 0 56 0 C55.67 4.62 55.34 9.24 55 14 C36.85 14 18.7 14 0 14 C0 9.38 0 4.76 0 0 Z " fill="#2E3191" transform="translate(235,97)"/>
<path d="M0 0 C18.15 0 36.3 0 55 0 C55 4.62 55 9.24 55 14 C36.85 14 18.7 14 0 14 C0 9.38 0 4.76 0 0 Z " fill="#2E3191" transform="translate(162,117)"/>
<path d="M0 0 C4.98138633 3.2570603 7.2922637 6.30754566 9 12 C9.78359519 18.0402129 9.08031909 23.68471254 6 29 C3.35361378 32.23179893 0.57750494 33.82149847 -3.4375 35.0625 C-7.83541005 34.98534368 -10.7157154 33.82790758 -14 31 C-17.73785521 25.98340484 -19.25253202 21.2817341 -19 15 C-17.84755881 8.29589502 -15.17904984 4.31587487 -10 0 C-6.14217025 -1.28594325 -3.95337324 -0.93808857 0 0 Z " fill="#E96D36" transform="translate(77,51)"/>
<path d="M0 0 C17.82 0 35.64 0 54 0 C54 4.62 54 9.24 54 14 C36.18 14 18.36 14 0 14 C0 9.38 0 4.76 0 0 Z " fill="#2E3191" transform="translate(235,117)"/>
<path d="M0 0 C3.11028128 3.27840459 4.28239704 6.06540177 4.5 10.5 C4.29001113 14.9547639 2.93174618 17.57962946 0 21 C-3.9498779 24.57369906 -7.13834239 24.55972383 -12.30078125 24.421875 C-16.5709011 23.75447566 -18.15218938 22.21291454 -21 19 C-22.54956697 16.77670826 -23.07227899 15.78221927 -22.82421875 13.09765625 C-21.08462486 8.67034858 -15.86598882 6.46850545 -12 4 C-10.98873047 3.33677734 -10.98873047 3.33677734 -9.95703125 2.66015625 C-6.61087591 0.58450581 -3.9224292 -1.060116 0 0 Z " fill="#F3D828" transform="translate(119,100)"/>
<path d="M0 0 C4.27896765 0.5899312 7.30407545 2.11097352 11 4.3125 C12.010625 4.90675781 13.02125 5.50101562 14.0625 6.11328125 C16.90350711 7.93802385 19.52224461 9.70310267 22 12 C22.2591688 15.56357098 22.03749976 17.74622386 19.70703125 20.5625 C15.59025837 24.00455239 11.66537196 24.76616841 6.37109375 24.4921875 C2.39890475 23.66764744 0.71917052 21.99108758 -2 19 C-4.522815 14.77211003 -4.71522416 10.81528823 -4 6 C-2.89681842 3.64494715 -1.66718358 2.03187998 0 0 Z " fill="#F3D928" transform="translate(26,100)"/>
<path d="M0 0 C0.33 0 0.66 0 1 0 C0.99476318 0.77601562 0.98952637 1.55203125 0.98413086 2.3515625 C0.96321736 5.90103328 0.95029432 9.45049104 0.9375 13 C0.92912109 14.22074219 0.92074219 15.44148438 0.91210938 16.69921875 C0.87292896 24.1997355 0.87292896 24.1997355 1.625 31.6484375 C2.00604224 35.05400251 2.01100222 35.9613909 0.0625 38.625 C-3.23955558 44.27594048 -2.31994191 50.67226006 -2 57 C-8.96777356 48.24162541 -9.69631815 36.86177594 -8.59765625 26.03515625 C-7.19235482 16.68724064 -4.1009926 8.49396526 0 0 Z " fill="#07914D" transform="translate(9,62)"/>
<path d="M0 0 C0.66 0.33 1.32 0.66 2 1 C2 2.65 2 4.3 2 6 C2.66 6 3.32 6 4 6 C4.91899251 19.52961198 4.91899251 19.52961198 2.76953125 22.96875 C1.1875 24.1875 1.1875 24.1875 -2 26 C-2.556875 26.7425 -3.11375 27.485 -3.6875 28.25 C-5 30 -5 30 -8 31 C-10.26763574 31.14648082 -12.54032366 31.2209626 -14.8125 31.25 C-16.61654297 31.28867188 -16.61654297 31.28867188 -18.45703125 31.328125 C-22.38507185 30.96433734 -24.71215018 30.16470112 -28 28 C-29.3125 25.87890625 -29.3125 25.87890625 -30 23.5625 C-30.2475 22.80066406 -30.495 22.03882812 -30.75 21.25390625 C-31.05179633 18.53302374 -30.42079352 17.29311896 -29 15 C-28.5875 15.556875 -28.175 16.11375 -27.75 16.6875 C-24.46020559 21.50362005 -24.46020559 21.50362005 -20 25 C-14.88335036 25.50260166 -10.47178626 25.84102072 -5.9375 23.25 C-2.27006454 18.99104269 -1.61533016 15.696733 -1.7421875 10.1875 C-2.09663942 7.18002919 -3.09374568 5.32986639 -5 3 C-5.99 2.34 -6.98 1.68 -8 1 C-5.26094655 -0.36952673 -3.02912668 -0.12621361 0 0 Z " fill="#EDD85B" transform="translate(124,98)"/>
<path d="M0 0 C1.625 2.375 1.625 2.375 3 5 C3.53625 5.721875 4.0725 6.44375 4.625 7.1875 C7.36024189 12.78231297 7.6616849 18.71916764 5.9375 24.6875 C3.89211567 29.88388181 1.09498097 34.20957015 -3.81640625 37.05078125 C-7.17357519 38.2647878 -9.26181059 38.2500319 -12.6640625 37.09765625 C-16.78708623 35.1430816 -19.43280547 33.8507918 -22 30 C-22 28.68 -22 27.36 -22 26 C-22.66 26 -23.32 26 -24 26 C-24 25.01 -24 24.02 -24 23 C-24.66 23 -25.32 23 -26 23 C-26.08165496 20.79229195 -26.13948488 18.58369575 -26.1875 16.375 C-26.23970703 14.53035156 -26.23970703 14.53035156 -26.29296875 12.6484375 C-25.91071776 7.88813853 -24.51256266 4.7096976 -21.3515625 1.13671875 C-14.45102577 -4.65536072 -7.65025799 -5.78938443 0 0 Z M-17 2 C-21.49128236 6.59573079 -23.86622952 10.64065615 -24.06640625 17.1640625 C-23.73306206 23.04304187 -21.86867561 27.54737336 -18 32 C-14.55493945 34.47145648 -12.73314852 35 -8.5 35 C-3.65503739 33.61572497 -0.47241133 31.54073986 2.0390625 27.20703125 C4.44510744 21.57418772 5.20966953 15.67453377 3.2734375 9.79296875 C1.30982511 5.49058224 -0.82967443 2.42460789 -5 0 C-10.13326474 -1.37498163 -12.84617399 -1.38864754 -17 2 Z " fill="#E94B30" transform="translate(82,51)"/>
<path d="M0 0 C3.42856619 1.50982731 5.95678216 3.51713969 8.75 6 C9.54921875 6.70125 10.3484375 7.4025 11.171875 8.125 C13 10 13 10 13 12 C11.39458177 13.08328221 9.73764003 14.09050517 8.0625 15.0625 C2.19561508 18.66470654 -2.3606422 22.94825484 -7 28 C-9.12886774 21.61339678 -6.20725318 12.9446947 -3.68359375 6.7890625 C-2.52155658 4.47823075 -1.32282275 2.22213308 0 0 Z " fill="#098F4D" transform="translate(82,130)"/>
<path d="M0 0 C1.32 0.66 2.64 1.32 4 2 C3.34 2.7425 2.68 3.485 2 4.25 C-1.19565051 9.00947948 -0.49822076 14.51202284 0 20 C1.23114497 25.64274779 3.75146296 29.42602407 8.5 32.75 C13.21254403 35.10627202 17.74326761 35.56939461 23 35 C27.22707563 33.34232328 30.74094897 31.16852183 34 28 C35.34772903 24.87866256 35.34772903 24.87866256 36 22 C37.32 23.32 38.64 24.64 40 26 C36.64403322 32.95921532 32.2607149 37.18840402 25 40 C18.31139655 41.11017972 12.93346757 40.16451604 7 37 C7 36.34 7 35.68 7 35 C6.401875 34.7525 5.80375 34.505 5.1875 34.25 C2.66413131 32.80807503 1.49969924 31.47450374 0 29 C0 28.01 0 27.02 0 26 C-0.66 26 -1.32 26 -2 26 C-4.84181583 17.47455251 -3.1113607 8.20436184 0 0 Z " fill="#B3CB59" transform="translate(16,95)"/>
<path d="M0 0 C5.31735186 4.54253773 7.39968272 13.24643061 8 20 C8.06352243 22.67282837 8.04611347 25.32541861 8 28 C7.38125 27.34 6.7625 26.68 6.125 26 C1.13347068 21.00847068 -4.52644343 15.91534303 -11 13 C-9.46356148 9.31930113 -7.21849055 7.01224796 -4.375 4.25 C-3.55773438 3.45078125 -2.74046875 2.6515625 -1.8984375 1.828125 C-0.95871094 0.92320312 -0.95871094 0.92320312 0 0 Z " fill="#0A8E4E" transform="translate(61,130)"/>
<path d="M0 0 C2.32732395 1.41301812 2.89087441 2.48512323 3.75 5.0625 C3.875 7.8125 3.875 7.8125 3.75 10.0625 C4.41 10.0625 5.07 10.0625 5.75 10.0625 C6.0625 13.25 6.0625 13.25 5.75 17.0625 C3.25 20 3.25 20 0.75 22.0625 C-5.88934426 20.58709016 -5.88934426 20.58709016 -7.625 18.0625 C-7.83125 17.4025 -8.0375 16.7425 -8.25 16.0625 C-8.58 15.4025 -8.91 14.7425 -9.25 14.0625 C-9.4238578 10.21495122 -9.30299216 6.50873923 -6.984375 3.32421875 C-4.76946411 1.33862944 -3.02118047 0.08392168 0 0 Z " fill="#EE9B45" transform="translate(73.25,55.9375)"/>
<path d="M0 0 C9.59208853 12.26472487 10.80209644 29.12052805 9 44 C7 43 7 43 6.25390625 41.1796875 C5.91166016 40.03886719 5.91166016 40.03886719 5.5625 38.875 C4.71169386 36.06490886 3.8277202 33.67491928 2.4453125 31.06640625 C-0.01888074 25.42174668 0.423555 19.11341104 0.3125 13.0625 C0.27833984 11.80630859 0.24417969 10.55011719 0.20898438 9.25585938 C0.12686886 6.17066214 0.05759701 3.08573616 0 0 Z " fill="#07914D" transform="translate(134,62)"/>
<path d="M0 0 C0.268125 0.639375 0.53625 1.27875 0.8125 1.9375 C1.88667752 4.33131686 1.88667752 4.33131686 5 5 C5.4125 5.61875 5.825 6.2375 6.25 6.875 C9.02546564 10.24520827 12.83364779 11.65162645 17.07080078 12.33300781 C19.19505495 12.5126882 21.30685303 12.61927251 23.4375 12.6875 C24.16904297 12.72166016 24.90058594 12.75582031 25.65429688 12.79101562 C27.43569562 12.87251753 29.21781749 12.93795523 31 13 C31 13.33 31 13.66 31 14 C30.26136719 14.10957031 29.52273437 14.21914062 28.76171875 14.33203125 C27.74722656 14.49058594 26.73273438 14.64914063 25.6875 14.8125 C24.58921875 14.97878906 23.4909375 15.14507812 22.359375 15.31640625 C19.14179019 15.97114734 16.46753985 17.01959365 13.4375 18.25 C10.75 19.05859375 10.75 19.05859375 8 19 C3.65881225 16.21477368 0.43389154 12.85782876 -3 9 C-3.66 8.34 -4.32 7.68 -5 7 C-3.35 4.69 -1.7 2.38 0 0 Z " fill="#8AC257" transform="translate(87,122)"/>
<path d="M0 0 C3.77928353 4.16818078 3.36359009 7.67543738 3.23828125 13.0703125 C2.97581672 16.29733544 2.31650674 19.03785985 1 22 C0.34 22 -0.32 22 -1 22 C-1.3403125 23.36125 -1.3403125 23.36125 -1.6875 24.75 C-3.57847985 29.4324263 -6.19024144 31.15825183 -10.6875 33.25 C-18.20101627 34.95117349 -26.71484547 34.61998218 -34 32 C-36.4375 29.5625 -36.4375 29.5625 -38 27 C-38.556875 26.46375 -39.11375 25.9275 -39.6875 25.375 C-41 24 -41 24 -42 21 C-41.01 20.34 -40.02 19.68 -39 19 C-38.62875 19.70125 -38.2575 20.4025 -37.875 21.125 C-35.44274151 24.85446301 -32.5312439 29.07353164 -28.20703125 30.65625 C-21.11869558 31.76027396 -13.01409171 32.38866152 -7 28 C-6.34 27.01 -5.68 26.02 -5 25 C-4.34 25 -3.68 25 -3 25 C0.33530434 16.56247415 0.32177688 8.93824669 0 0 Z " fill="#AEC958" transform="translate(129,100)"/>
<path d="M0 0 C0.66 0 1.32 0 2 0 C9.0686948 15.82041217 9.0686948 15.82041217 7 23 C2.15078408 34.23281062 2.15078408 34.23281062 -2 37 C-1.690625 36.236875 -1.38125 35.47375 -1.0625 34.6875 C0.78357333 30.01802039 1.18302172 26.09589468 1.1875 21.125 C1.19974609 20.41730469 1.21199219 19.70960937 1.22460938 18.98046875 C1.23629312 14.79768743 0.62594519 11.81142618 -1 8 C-0.97104201 5.23451242 -0.46488118 2.74279896 0 0 Z " fill="#5FB855" transform="translate(134,89)"/>
<path d="M0 0 C2.25 -0.375 2.25 -0.375 5 0 C8.11028128 3.27840459 9.28239704 6.06540177 9.5 10.5 C9.29001113 14.9547639 7.93174618 17.57962946 5 21 C1.0501221 24.57369906 -2.13834239 24.55972383 -7.30078125 24.421875 C-11.5709011 23.75447566 -13.15218938 22.21291454 -16 19 C-17.70942896 16.54734106 -18.1165767 15.69946021 -17.625 12.75 C-17.41875 12.1725 -17.2125 11.595 -17 11 C-16.67 11 -16.34 11 -16 11 C-15.9175 12.11375 -15.835 13.2275 -15.75 14.375 C-15.42291127 18.03069308 -15.42291127 18.03069308 -13.0625 19.375 C-12.0415625 19.684375 -12.0415625 19.684375 -11 20 C-10.34 20.33 -9.68 20.66 -9 21 C-4.80508432 21.40335728 -2.4749991 21.24198067 1.3125 19.3125 C4.24663716 16.78777733 5.16898638 15.73956127 6 12 C6.14182499 8.99128421 6.11800221 6.00905644 6 3 C5.34 3 4.68 3 4 3 C4 2.34 4 1.68 4 1 C2.68 0.67 1.36 0.34 0 0 Z " fill="#F3D942" transform="translate(114,100)"/>
<path d="M0 0 C0.99 0 1.98 0 3 0 C1.79618552 2.49361571 0.54571278 4.68143083 -1 7 C-1.24187651 9.74518321 -1.24187651 9.74518321 -1.125 12.6875 C-1.10695313 13.68136719 -1.08890625 14.67523438 -1.0703125 15.69921875 C-1.04710937 16.45847656 -1.02390625 17.21773437 -1 18 C-0.34 18 0.32 18 1 18 C1 18.66 1 19.32 1 20 C5.29 20.66 9.58 21.32 14 22 C14 21.34 14 20.68 14 20 C15.66666667 18.33333333 17.33333333 16.66666667 19 15 C20.29519995 12.83379456 20.29519995 12.83379456 21 11 C22 12 22 12 22 15.25 C20.85333997 19.54997513 19.84855451 20.8313222 16.1640625 23.11328125 C12.0997041 24.7786411 8.2772518 24.88786446 4 24 C0.09825784 21.96500511 -2.331106 19.04443682 -4 15 C-4.74867055 10.21199065 -4.39531291 6.77699434 -2.1875 2.4375 C-1.465625 1.633125 -0.74375 0.82875 0 0 Z " fill="#F3D940" transform="translate(26,100)"/>
<path d="M0 0 C1.9375 0.8125 1.9375 0.8125 4 2 C4.33 2.99 4.66 3.98 5 5 C1.04 8.96 -2.92 12.92 -7 17 C-9.97 16.01 -12.94 15.02 -16 14 C-13 12 -13 12 -10.625 10.703125 C-5.43726807 7.83134483 -1.9699483 5.90984489 0 0 Z " fill="#56B554" transform="translate(57,125)"/>
<path d="M0 0 C0.33 0 0.66 0 1 0 C1 1.65 1 3.3 1 5 C1.66 5 2.32 5 3 5 C3.10826289 7.4178712 3.18739789 9.83087556 3.25 12.25 C3.28351563 12.93191406 3.31703125 13.61382812 3.3515625 14.31640625 C3.41984243 17.83282253 3.26749128 19.64850319 1.109375 22.484375 C-1 24 -1 24 -3 24 C-2.44735344 21.23676721 -1.59734415 19.148228 -0.375 16.5625 C1.10616087 12.72494684 1.02124111 11.80644412 0 8 C-0.10013141 5.3264913 -0.04536629 2.6766114 0 0 Z M-4 25 C-4.8125 26.9375 -4.8125 26.9375 -6 29 C-9.42991538 30.14330513 -12.1986416 30.20381651 -15.8125 30.25 C-17.61654297 30.28867188 -17.61654297 30.28867188 -19.45703125 30.328125 C-23.28988045 29.9731533 -25.69715027 28.92202587 -29 27 C-28.34 26.67 -27.68 26.34 -27 26 C-26.175 26.309375 -25.35 26.61875 -24.5 26.9375 C-18.90412125 28.63624891 -13.3198341 29.15991705 -8 26.5 C-6 25 -6 25 -4 25 Z " fill="#DFD65A" transform="translate(125,99)"/>
<path d="M0 0 C1.64874527 2.52161041 2.01134133 3.82609965 1.8125 6.875 C1 10 1 10 -0.5390625 12.734375 C-2.24688998 16.55187171 -2.30519204 19.21654777 -2.1875 23.375 C-2.16042969 24.62023437 -2.13335938 25.86546875 -2.10546875 27.1484375 C-2.07066406 28.08945313 -2.03585938 29.03046875 -2 30 C-5.49913329 25.46550672 -7.42727078 21.83098944 -7 16 C-5.9765625 13.02734375 -5.9765625 13.02734375 -4.625 9.9375 C-4.18414062 8.91527344 -3.74328125 7.89304687 -3.2890625 6.83984375 C-2.24070278 4.53027551 -1.15780649 2.25609956 0 0 Z " fill="#42B154" transform="translate(9,89)"/>
<path d="M0 0 C0.33 0 0.66 0 1 0 C1.0578082 2.83260193 1.03526101 4.41434811 0 7 C-4.6767391 11.73252525 -9.12792061 14.86102842 -15.875 15.1875 C-21.98845509 15.08709654 -26.13883409 12.64587443 -31 9 C-31.33 8.01 -31.66 7.02 -32 6 C-31.34 6 -30.68 6 -30 6 C-29.01 7.485 -29.01 7.485 -28 9 C-21.62826403 11.52214549 -14.77920168 11.9858787 -8.125 10.25 C-3.71714089 7.6571417 -1.6091691 4.8275073 0 0 Z " fill="#D9D55A" transform="translate(51,116)"/>
<path d="M0 0 C2.97 0.495 2.97 0.495 6 1 C5.57847656 1.50789063 5.15695313 2.01578125 4.72265625 2.5390625 C-0.15549865 8.66832066 -1.28698393 12.5593552 -0.5625 20.375 C-0.38275863 21.91759048 -0.19787356 23.45963043 0 25 C-3 23 -3 23 -3.66796875 20.74609375 C-5.31152372 7.15292735 -5.31152372 7.15292735 -2 2.25 C-1.34 1.5075 -0.68 0.765 0 0 Z " fill="#DDD55B" transform="translate(19,97)"/>
<path d="M0 0 C0.66 0.33 1.32 0.66 2 1 C1.62472519 6.37893899 0.00517004 8.48326533 -4 12 C-4.66 12.66 -5.32 13.32 -6 14 C-12.97039968 15.87068846 -21.41559482 16.13543104 -28 13 C-30.875 10.875 -30.875 10.875 -33 9 C-32.67 8.34 -32.34 7.68 -32 7 C-31.31164062 7.52400391 -31.31164062 7.52400391 -30.609375 8.05859375 C-29.99578125 8.51363281 -29.3821875 8.96867187 -28.75 9.4375 C-28.14671875 9.88996094 -27.5434375 10.34242187 -26.921875 10.80859375 C-22.69158286 13.43103095 -17.86515321 13.52697984 -13 13 C-8.77292437 11.34232328 -5.25905103 9.16852183 -2 6 C-0.65227097 2.87866256 -0.65227097 2.87866256 0 0 Z " fill="#C6D059" transform="translate(52,117)"/>
<path d="M0 0 C2.4375 0.1875 2.4375 0.1875 3.4375 1.1875 C3.67478814 7.71292373 3.67478814 7.71292373 2.4375 10.1875 C0.1275 9.8575 -2.1825 9.5275 -4.5625 9.1875 C-4.6875 5.8125 -4.6875 5.8125 -4.5625 2.1875 C-2.5625 0.1875 -2.5625 0.1875 0 0 Z " fill="#F0AF4C" transform="translate(72.5625,62.8125)"/>
<path d="M0 0 C0.66 0 1.32 0 2 0 C4.67991208 5.35982417 5.32588617 10.16585492 5.375 16.125 C5.38853516 16.805625 5.40207031 17.48625 5.41601562 18.1875 C5.37524015 22.844965 4.35171219 26.00582215 2 30 C1.4375 28.0625 1.4375 28.0625 1 26 C1.33 25.67 1.66 25.34 2 25 C2.54130265 17.23438883 2.48402604 10.96805209 -1 4 C-0.6875 1.5625 -0.6875 1.5625 0 0 Z " fill="#82C156" transform="translate(131,94)"/>
<path d="M0 0 C0.66 0 1.32 0 2 0 C8.9409994 15.5346177 8.9409994 15.5346177 7 23 C6.34 23.99 5.68 24.98 5 26 C4.96132812 24.96552734 4.96132812 24.96552734 4.921875 23.91015625 C4.55825545 17.88564144 3.54071176 13.40549906 0.85546875 8.015625 C-0.30142676 5.28978901 -0.29919615 2.91716246 0 0 Z " fill="#32AC53" transform="translate(134,89)"/>
<path d="M0 0 C5 5 5 5 6.375 6.5625 C8.04681442 8.04141275 9.67521677 8.98457106 11.625 10.0625 C15 12 15 12 16 14 C13.85546875 14.80078125 13.85546875 14.80078125 11 15 C8.17578125 12.98046875 8.17578125 12.98046875 5.3125 10.1875 C4.82716797 9.72279297 4.34183594 9.25808594 3.84179688 8.77929688 C1.8668159 6.88059103 -0.06283657 4.93716343 -2 3 C-1.34 2.01 -0.68 1.02 0 0 Z " fill="#3FB153" transform="translate(84,126)"/>
<path d="M0 0 C0.66 0 1.32 0 2 0 C1.34 2.31 0.68 4.62 0 7 C-0.66 7 -1.32 7 -2 7 C-2.10887507 9.68860931 -2.18770594 12.37273158 -2.25 15.0625 C-2.30027344 16.19075195 -2.30027344 16.19075195 -2.3515625 17.34179688 C-2.45164192 23.12138322 -1.05087224 26.13224653 2 31 C1.67 31.66 1.34 32.32 1 33 C-4.52217022 26.91145335 -5.3895239 22.21253157 -5.3671875 14.00390625 C-4.73793851 8.85611401 -2.44664919 4.51756296 0 0 Z " fill="#5EB855" transform="translate(11,94)"/>
<path d="M0 0 C0.99 0.33 1.98 0.66 3 1 C3 1.66 3 2.32 3 3 C3.86625 3.37125 3.86625 3.37125 4.75 3.75 C7 5 7 5 8.625 6.9375 C12.2220278 10.06123467 16.44392827 10.85228727 21 12 C18 14 18 14 15.3125 14 C8.89951705 12.06400515 3.70046707 7.55070061 0 2 C0 1.34 0 0.68 0 0 Z " fill="#67BB55" transform="translate(85,125)"/>
<path d="M0 0 C0.99 0.99 1.98 1.98 3 3 C2.34 3 1.68 3 1 3 C0.95875 3.721875 0.9175 4.44375 0.875 5.1875 C-0.65795222 10.11484644 -4.78553358 12.26625987 -9 14.8125 C-12.23164624 16.0916933 -14.5571798 16.24591573 -18 16 C-15.35261084 14.5393715 -14.10551666 14 -11 14 C-10.67 13.01 -10.34 12.02 -10 11 C-8.4765625 9.82421875 -8.4765625 9.82421875 -6.625 8.6875 C-3.10767432 6.31854143 -1.57833845 3.99226784 0 0 Z " fill="#80BE56" transform="translate(56,122)"/>
<path d="M0 0 C0.53625 0.268125 1.0725 0.53625 1.625 0.8125 C1.955 2.1325 2.285 3.4525 2.625 4.8125 C0.315 4.8125 -1.995 4.8125 -4.375 4.8125 C-4.705 5.8025 -5.035 6.7925 -5.375 7.8125 C-6.035 7.8125 -6.695 7.8125 -7.375 7.8125 C-7.375 10.4525 -7.375 13.0925 -7.375 15.8125 C-9.375 13.8125 -9.375 13.8125 -9.5625 11.82421875 C-9.21746359 7.54720486 -8.85325677 4.64501558 -5.5625 1.6875 C-2.375 -0.1875 -2.375 -0.1875 0 0 Z " fill="#EC853E" transform="translate(73.375,56.1875)"/>
<path d="M0 0 C3.77928353 4.16818078 3.36359009 7.67543738 3.23828125 13.0703125 C2.97581672 16.29733544 2.31650674 19.03785985 1 22 C0.34 22 -0.32 22 -1 22 C-1.103125 22.639375 -1.20625 23.27875 -1.3125 23.9375 C-1.539375 24.618125 -1.76625 25.29875 -2 26 C-2.99 26.33 -3.98 26.66 -5 27 C-5 26.34 -5 25.68 -5 25 C-4.34 25 -3.68 25 -3 25 C0.33530434 16.56247415 0.32177688 8.93824669 0 0 Z " fill="#B9CE59" transform="translate(129,100)"/>
<path d="M0 0 C1.04958161 2.72891219 1.06231695 3.83114118 0.03125 6.625 C-1.20824571 10.68153141 -1.22382566 14.17110845 -1.125 18.375 C-1.11597656 19.11105469 -1.10695313 19.84710938 -1.09765625 20.60546875 C-1.07430144 22.4037888 -1.03843836 24.20193911 -1 26 C-4.54225346 21.99043078 -4.37579732 19.0610621 -4.23046875 13.8984375 C-3.39531479 3.39531479 -3.39531479 3.39531479 0 0 Z " fill="#A0C858" transform="translate(15,95)"/>
<path d="M0 0 C0.33 0 0.66 0 1 0 C1.58170709 4.42097387 0.6115066 7.05960839 -1.4375 10.875 C-3.86361972 15.39827406 -4.71652378 18.897428 -5 24 C-7.21097079 20.68354381 -7.39008473 19.83954827 -7 16 C-5.9765625 13.02734375 -5.9765625 13.02734375 -4.625 9.9375 C-4.18414062 8.91527344 -3.74328125 7.89304687 -3.2890625 6.83984375 C-2.24070278 4.53027551 -1.15780649 2.25609956 0 0 Z " fill="#28A852" transform="translate(9,89)"/>
<path d="M0 0 C0.66 0 1.32 0 2 0 C2.268125 0.61875 2.53625 1.2375 2.8125 1.875 C3.95556848 4.2995233 3.95556848 4.2995233 7 6 C7 6.66 7 7.32 7 8 C7.8971875 8.433125 7.8971875 8.433125 8.8125 8.875 C11 10 11 10 14 12 C9.92996443 12.48452804 8.26560076 12.16855433 4.75 9.9375 C1.54076901 7.01390737 0.821871 4.19154207 0 0 Z " fill="#7BBF56" transform="translate(12,123)"/>
<path d="M0 0 C1.32 0.33 2.64 0.66 4 1 C2.625 2.5 2.625 2.5 1 4 C0.34 4 -0.32 4 -1 4 C-2.87457064 10.59075233 -2.13537936 17.32964627 -1 24 C-1.66 23.67 -2.32 23.34 -3 23 C-4.59489921 17.22749384 -5.47955542 9.49536893 -3.10546875 3.88671875 C-2 2.25 -2 2.25 0 0 Z " fill="#CED15A" transform="translate(19,97)"/>
<path d="M0 0 C0.99 0.33 1.98 0.66 3 1 C-0.96 4.96 -4.92 8.92 -9 13 C-10.32 12.34 -11.64 11.68 -13 11 C-12.22914062 10.45730469 -11.45828125 9.91460937 -10.6640625 9.35546875 C-9.66117188 8.64003906 -8.65828125 7.92460937 -7.625 7.1875 C-6.62726562 6.47980469 -5.62953125 5.77210938 -4.6015625 5.04296875 C-1.83319352 3.08757661 -1.83319352 3.08757661 0 0 Z " fill="#2BAB52" transform="translate(59,129)"/>
<path d="M0 0 C0.33 0.99 0.66 1.98 1 3 C-5.89715536 10.84245077 -5.89715536 10.84245077 -10.5 11.5 C-11.325 11.335 -12.15 11.17 -13 11 C-12.34 10.484375 -11.68 9.96875 -11 9.4375 C-7.24666356 6.38791415 -3.62397965 3.2013319 0 0 Z " fill="#83C156" transform="translate(131,124)"/>
<path d="M0 0 C0.66 0 1.32 0 2 0 C2.3125 3.1875 2.3125 3.1875 2 7 C-0.5 9.9375 -0.5 9.9375 -3 12 C-5.31 11.34 -7.62 10.68 -10 10 C-9.67 8.68 -9.34 7.36 -9 6 C-8.67 6.66 -8.34 7.32 -8 8 C-6.02 8 -4.04 8 -2 8 C-1.34 5.36 -0.68 2.72 0 0 Z " fill="#ED8E41" transform="translate(77,66)"/>
<path d="M0 0 C0.99 0.33 1.98 0.66 3 1 C2.73781251 5.4571874 2.42288711 7.51522698 -0.5625 10.9375 C-1.366875 11.618125 -2.17125 12.29875 -3 13 C-3 10 -3 10 -1 8 C-0.54188325 6.02764667 -0.54188325 6.02764667 -0.375 3.875 C-0.25125 2.59625 -0.1275 1.3175 0 0 Z " fill="#EB7E3B" transform="translate(79,65)"/>
<path d="M0 0 C2 1 2 1 2.8125 3.1875 C4.33224375 6.7868931 6.41732837 9.07750315 9 12 C6.00779732 10.63629701 3.70973471 9.05091917 1.25 6.875 C0.63640625 6.33617187 0.0228125 5.79734375 -0.609375 5.2421875 C-1.06828125 4.83226562 -1.5271875 4.42234375 -2 4 C-1.34 2.68 -0.68 1.36 0 0 Z " fill="#33AC53" transform="translate(84,126)"/>
<path d="M0 0 C0.66 0.33 1.32 0.66 2 1 C2.4140625 3.06640625 2.4140625 3.06640625 2.625 5.5625 C2.69976562 6.38878906 2.77453125 7.21507813 2.8515625 8.06640625 C2.90054688 8.70449219 2.94953125 9.34257813 3 10 C2.443125 9.21625 1.88625 8.4325 1.3125 7.625 C-1.07668565 4.91295142 -2.60073413 4.03866457 -6 3 C-3 1 -3 1 0 0 Z " fill="#A9BA59" transform="translate(129,94)"/>
<path d="M0 0 C1.32 0 2.64 0 4 0 C4 1.65 4 3.3 4 5 C2.68 4.67 1.36 4.34 0 4 C0 2.68 0 1.36 0 0 Z " fill="#F2C754" transform="translate(70,65)"/>
</svg>
